Coordinates
version=1
nRows=32
nColumns=22
inDegrees=yes

Units are S.I. units (second, meters, Newtons, ...)
If the header above contains a line with 'inDegrees', this indicates whether rotational values are in degrees (yes) or radians (no).

endheader
time	pelvis_tilt	pelvis_list	pelvis_rotation	pelvis_tx	pelvis_ty	pelvis_tz	hip_flexion_r	hip_adduction_r	hip_rotation_r	knee_angle_r	ankle_angle_r	subtalar_angle_r	hip_flexion_l	hip_adduction_l	hip_rotation_l	knee_angle_l	ankle_angle_l	subtalar_angle_l	lumbar_extension	lumbar_bending	lumbar_rotation
      5.36000000	     -2.89255759	      1.63532229	   -125.44803531	      0.73468472	      0.93333572	      0.62598699	     17.37180925	     14.49161717	     -2.17770242	    -22.31055597	      6.55204526	    -11.95808350	     19.04707124	    -11.01943357	     -4.35429644	    -72.37024956	      3.70275809	      9.03728876	     -8.34059178	      1.10720525	     -1.83962491
      5.37000000	     -2.90587946	      1.64222108	   -126.47101361	      0.72963552	      0.93450444	      0.63122165	     16.44180290	     14.76629451	     -1.22815589	    -21.82549368	      6.65047838	    -11.94087222	     20.31925414	    -11.27821342	     -4.02696609	    -72.49961933	      4.35588632	      8.28299633	     -8.32577667	      1.05831631	     -1.46926992
      5.38000000	     -2.93963449	      1.67524257	   -127.47908240	      0.72469340	      0.93559082	      0.63639989	     15.52026592	     15.03766040	     -0.30156491	    -21.33403827	      6.77053317	    -11.90630592	     21.53307144	    -11.52075274	     -3.63551252	    -72.38035110	      5.03645134	      7.70643096	     -8.31340713	      1.06683139	     -1.10499252
      5.39000000	     -2.97050668	      1.70991445	   -128.47539655	      0.71984770	      0.93662069	      0.64149925	     14.60721429	     15.27606980	      0.63449161	    -20.84840272	      6.87327032	    -11.83974309	     22.67405818	    -11.70397394	     -3.19029466	    -72.00954280	      5.63985897	      7.17232333	     -8.30895115	      1.08216249	     -0.74548186
      5.40000000	     -2.98644069	      1.72260552	   -129.48907945	      0.71504624	      0.93765871	      0.64654712	     13.66905181	     15.45592153	      1.58069969	    -20.33946241	      6.94572905	    -11.66870388	     23.69322592	    -11.82088804	     -2.75837611	    -71.35791571	      6.11901532	      6.57569817	     -8.32235985	      1.07544985	     -0.37634399
      5.41000000	     -3.00440862	      1.79308440	   -130.49005001	      0.71037945	      0.93851525	      0.65151688	     12.81059343	     15.63617149	      2.47156143	    -19.86721820	      7.04525768	    -11.49921337	     24.69578960	    -11.93147044	     -2.27138114	    -70.50368618	      6.64729025	      6.26011118	     -8.30556259	      1.13453776	     -0.00111579
      5.42000000	     -3.01173341	      1.85361359	   -131.50682711	      0.70576163	      0.93932791	      0.65639231	     11.96742486	     15.77874234	      3.38271033	    -19.42256621	      7.14235139	    -11.24059092	     25.58876032	    -11.99237898	     -1.78726351	    -69.40329457	      7.11342852	      6.03048774	     -8.30526572	      1.17875362	      0.38972181
      5.43000000	     -3.00455615	      1.95402873	   -132.51461865	      0.70127313	      0.93997066	      0.66118195	     11.21014441	     15.91102063	      4.28151376	    -19.03741792	      7.26121481	    -11.03015890	     26.45148701	    -12.02850979	     -1.26538265	    -68.11381277	      7.56962451	      5.91320373	     -8.27960961	      1.25772164	      0.77324659
      5.44000000	     -2.97625885	      1.99059721	   -133.54952091	      0.69679693	      0.94067201	      0.66595550	     10.41251882	     15.95645341	      5.18789965	    -18.65259962	      7.39216186	    -10.59739799	     27.13839400	    -11.99218489	     -0.80694526	    -66.57588237	      7.94034256	      5.92107104	     -8.29639478	      1.27797309	      1.15900202
      5.45000000	     -2.92335449	      2.07943627	   -134.57227643	      0.69243118	      0.94116647	      0.67063815	      9.73306456	     16.00692325	      6.09476690	    -18.35077958	      7.54932281	    -10.27574008	     27.81860225	    -11.94502769	     -0.31093986	    -64.88454042	      8.28938771	      5.99361943	     -8.26681010	      1.32747226	      1.54271046
      5.46000000	     -2.84195093	      2.19420727	   -135.60659831	      0.68811994	      0.94150475	      0.67525204	      9.14127293	     16.05023835	      7.02830850	    -18.12515591	      7.73327824	    -10.07279083	     28.45396840	    -11.88578537	      0.18070387	    -63.03919519	      8.58893042	      6.08128793	     -8.20189197	      1.38321335	      1.93989964
      5.47000000	     -2.74672559	      2.27509691	   -136.64230523	      0.68382033	      0.94180728	      0.67982475	      8.57237750	     16.05287541	      7.97978156	    -17.96622367	      7.94582195	     -9.84493509	     28.97196555	    -11.78193647	      0.66850328	    -61.02702229	      8.82785091	      6.25238098	     -8.15669916	      1.39982107	      2.32936769
      5.48000000	     -2.66616116	      2.31496934	   -137.65246728	      0.67954544	      0.94211057	      0.68443114	      7.99313656	     16.02109526	      8.90742941	    -17.85164130	      8.17596162	     -9.50976092	     29.35419054	    -11.63277771	      1.18927635	    -58.86693479	      9.04514503	      6.56265880	     -8.15285281	      1.39983362	      2.68225917
      5.49000000	     -2.53006910	      2.41029825	   -138.67232031	      0.67529035	      0.94216153	      0.68895114	      7.56997049	     16.00424745	      9.87970456	    -17.85774900	      8.45614098	     -9.39154657	     29.75843898	    -11.49228601	      1.71893890	    -56.61211476	      9.16220486	      6.75385716	     -8.05917968	      1.40527248	      3.05541400
      5.50000000	     -2.44368442	      2.44245447	   -139.65988974	      0.67100672	      0.94228428	      0.69353296	      7.07693722	     15.96270090	     10.83168786	    -17.88549213	      8.73805581	     -9.19073057	     29.97844606	    -11.31764036	      2.29592166	    -54.22086696	      9.28894165	      7.10188080	     -8.04628871	      1.39803858	      3.38476637
      5.51000000	     -2.30820817	      2.50710384	   -140.63442487	      0.66674952	      0.94219886	      0.69807262	      6.72090973	     15.92161958	     11.78145019	    -18.03423366	      9.06427918	     -9.13263460	     30.19774006	    -11.13380968	      2.90106000	    -51.74138746	      9.32355467	      7.32092796	     -7.96264516	      1.38467070	      3.70914320
      5.52000000	     -2.24166038	      2.52004912	   -141.55638474	      0.66246522	      0.94218958	      0.70271582	      6.27382909	     15.87095939	     12.69503290	    -18.17628586	      9.37157835	     -9.02940822	     30.23463169	    -10.93103052	      3.58212708	    -49.14683396	      9.40731821	      7.66616014	     -7.96416844	      1.38527076	      3.97022151
      5.53000000	     -2.12945403	      2.55700325	   -142.44367359	      0.65819784	      0.94198768	      0.70735800	      5.94124324	     15.81228014	     13.56286664	    -18.41236724	      9.75928284	     -9.00071848	     30.26304544	    -10.71145646	      4.31299109	    -46.47144690	      9.41797940	      7.92483988	     -7.89936291	      1.37466074	      4.20875639
      5.54000000	     -2.05873334	      2.56740978	   -143.27685107	      0.65390891	      0.94178423	      0.71207623	      5.56643859	     15.74739662	     14.37553846	    -18.65594339	     10.15264893	     -8.96268835	     30.15924655	    -10.48274752	      5.12458982	    -43.70238883	      9.47063133	      8.24228839	     -7.87951800	      1.37430342	      4.39632899
      5.55000000	     -2.00462431	      2.57273525	   -144.04878702	      0.64962144	      0.94152485	      0.71689660	      5.18726355	     15.67408834	     15.12295951	    -18.90940614	     10.56338997	     -8.91679236	     29.96422890	    -10.24429224	      6.03068243	    -40.85137712	      9.56701630	      8.60439741	     -7.86580660	      1.39217144	      4.52481878
      5.56000000	     -1.96158284	      2.57839925	   -144.76360420	      0.64532873	      0.94118041	      0.72177508	      4.81708591	     15.59802793	     15.80189208	    -19.18020113	     11.00532425	     -8.86941678	     29.69442531	    -10.00815027	      7.02986024	    -37.93760759	      9.70451235	      8.99724591	     -7.85514080	      1.41991235	      4.61164495
      5.57000000	     -1.93182664	      2.58880506	   -145.42663155	      0.64102081	      0.94075953	      0.72672589	      4.44484268	     15.52144008	     16.42290223	    -19.45131929	     11.46105042	     -8.81571085	     29.35132159	     -9.78831809	      8.12499781	    -34.97544254	      9.90061554	      9.42991898	     -7.84510962	      1.46717891	      4.66063098
      5.58000000	     -1.91248504	      2.60921125	   -146.04433896	      0.63669176	      0.94025302	      0.73172572	      4.07664722	     15.44903902	     16.99081616	    -19.72355146	     11.92925123	     -8.75663920	     28.95181031	     -9.60309825	      9.29843639	    -31.99237871	     10.14835655	      9.89723063	     -7.83225567	      1.53279815	      4.68089373
      5.59000000	     -1.90927717	      2.65317937	   -146.62837212	      0.63229100	      0.93967346	      0.73674264	      3.69601543	     15.39827418	     17.54567563	    -19.96919122	     12.35194587	     -8.65517657	     28.50878273	     -9.49068844	     10.51528853	    -29.01607596	     10.48776185	     10.45230454	     -7.81020434	      1.62771030	      4.69530279
      5.60000000	     -1.89731519	      2.70621557	   -147.17847805	      0.62787229	      0.93898767	      0.74176921	      3.35080121	     15.34492487	     18.03667118	    -20.24457026	     12.83463699	     -8.57217739	     28.05872623	     -9.42716001	     11.73755863	    -26.08939888	     10.80038471	     10.94621375	     -7.77130683	      1.72333685	      4.69057477
      5.61000000	     -1.88572823	      2.77873764	   -147.70221821	      0.62340034	      0.93821843	      0.74678254	      3.02409647	     15.30488193	     18.48795948	    -20.52566063	     13.31277310	     -8.48767615	     27.62156058	     -9.44023650	     12.89760903	    -23.25787258	     11.10520313	     11.39051601	     -7.71628713	      1.83132619	      4.68341957
      5.62000000	     -1.87541331	      2.87200878	   -148.21222165	      0.61888805	      0.93737283	      0.75175930	      2.72525806	     15.28523759	     18.90640214	    -20.83341162	     13.79595103	     -8.40595353	     27.22394356	     -9.53275766	     13.92105663	    -20.57802737	     11.36279467	     11.77599211	     -7.64872046	      1.95587349	      4.67599641
      5.63000000	     -1.85809359	      2.98595601	   -148.71543207	      0.61428571	      0.93646498	      0.75668803	      2.43337407	     15.28147110	     19.33248225	    -21.12406270	     14.23943633	     -8.28019875	     26.89278209	     -9.69809978	     14.69807433	    -18.10033489	     11.64417031	     12.13024454	     -7.55671816	      2.08222238	      4.68776690
      5.64000000	     -1.83018286	      3.11107576	   -149.22070102	      0.60965700	      0.93550329	      0.76158829	      2.17824636	     15.28090595	     19.70023885	    -21.44715313	     14.68320384	     -8.17026034	     26.64493276	     -9.90170812	     15.17842507	    -15.87878877	     11.85153236	     12.40716531	     -7.44783944	      2.21113125	      4.72890411
      5.65000000	     -1.79470356	      3.24067561	   -149.72264304	      0.60499309	      0.93451285	      0.76647501	      1.93492039	     15.27822238	     20.03927977	    -21.77388765	     15.10860894	     -8.04846750	     26.49054227	    -10.11595765	     15.31770339	    -13.96278118	     12.03416100	     12.64428926	     -7.32938256	      2.33616656	      4.78367375
      5.66000000	     -1.75200819	      3.36785577	   -150.22014836	      0.60031198	      0.93351577	      0.77137568	      1.69875286	     15.26300735	     20.33068418	    -22.10057787	     15.51823918	     -7.93037052	     26.43028722	    -10.31027288	     15.12266513	    -12.38282681	     12.17449297	     12.85488188	     -7.20613821	      2.45441170	      4.85453215
      5.67000000	     -1.69208571	      3.49132866	   -150.70707575	      0.59563110	      0.93251090	      0.77629821	      1.47383337	     15.23069682	     20.59253410	    -22.41831471	     15.91673764	     -7.84840620	     26.47596079	    -10.45983029	     14.64389158	    -11.15819650	     12.24182436	     13.02289398	     -7.07076030	      2.56095721	      4.92009529
